<svg width="20" height="20" viewBox="0 0 20 20" fill="none" xmlns="http://www.w3.org/2000/svg">
<circle cx="10" cy="10" r="10" fill="#111111"/>
<path d="M14.9209 12.8042H13.835C14.5558 11.848 14.9528 10.6523 14.9528 9.43749C14.9528 6.4958 12.7311 4.10254 9.99996 4.10254C7.26897 4.10254 5.04716 6.49591 5.04716 9.43749C5.04716 10.6525 5.44395 11.8482 6.16466 12.8042H5.07965C4.96507 12.8042 4.87207 12.8972 4.87207 13.0118V13.8124C4.87207 13.927 4.96507 14.02 5.07965 14.02H8.04292C8.15751 14.02 8.2505 13.927 8.2505 13.8124V12.9205C8.2505 12.8711 8.23296 12.8235 8.20099 12.786L8.18947 12.7724C8.17785 12.7586 8.16436 12.7465 8.14951 12.7363C7.12968 12.0295 6.49605 10.7656 6.49605 9.43739C6.49605 7.29456 8.06794 5.55133 9.99996 5.55133C11.9319 5.55133 13.5038 7.29467 13.5038 9.43739C13.5038 10.7712 12.8662 12.0378 11.8401 12.7432C11.7838 12.7819 11.7502 12.8458 11.7502 12.9141V13.8122C11.7502 13.9268 11.8431 14.0198 11.9577 14.0198H14.9209C15.0355 14.0198 15.1285 13.9268 15.1285 13.8122V13.0116C15.1285 12.8971 15.0357 12.8042 14.9209 12.8042Z" fill="white"/>
</svg>
